HIERARCHY
ROOT joint_Root
{
	OFFSET 0.0 0.0 0.0
	CHANNELS 6 Xposition Yposition Zposition Zrotation Xrotation Yrotation 
	JOINT Hips
	{
		OFFSET -17.1583 93.1646 452.98
		CHANNELS 6 Xposition Yposition Zposition Zrotation Xrotation Yrotation 
		JOINT Spine
		{
			OFFSET 15.7357 0.0 0.0
			CHANNELS 6 Xposition Yposition Zposition Zrotation Xrotation Yrotation 
			JOINT Chest
			{
				OFFSET 8.98455 -0.406207 0.0
				CHANNELS 6 Xposition Yposition Zposition Zrotation Xrotation Yrotation 
				JOINT Neck
				{
					OFFSET 16.3773 0.0 0.0
					CHANNELS 6 Xposition Yposition Zposition Zrotation Xrotation Yrotation 
					JOINT Head
					{
						OFFSET 6.45672 0.0 0.0
						CHANNELS 6 Xposition Yposition Zposition Zrotation Xrotation Yrotation 
						End Site
						{
							OFFSET 0.0 0.0 0.0
						}
					}
				}
				JOINT Shoulder_L
				{
					OFFSET 12.9942 -0.242716 4.98039
					CHANNELS 6 Xposition Yposition Zposition Zrotation Xrotation Yrotation 
					JOINT UpperArm_L
					{
						OFFSET 5.34809 0.0 0.0
						CHANNELS 6 Xposition Yposition Zposition Zrotation Xrotation Yrotation 
						JOINT LowerArm_L
						{
							OFFSET 24.3286 1.87007e-05 0.0
							CHANNELS 6 Xposition Yposition Zposition Zrotation Xrotation Yrotation 
							JOINT Hand_L
							{
								OFFSET 22.2916 0.0 0.0
								CHANNELS 6 Xposition Yposition Zposition Zrotation Xrotation Yrotation 
								End Site
								{
									OFFSET 0.0 0.0 0.0
								}
							}
						}
					}
				}
				JOINT Shoulder_R
				{
					OFFSET 12.9945 -0.242716 -4.98039
					CHANNELS 6 Xposition Yposition Zposition Zrotation Xrotation Yrotation 
					JOINT UpperArm_R
					{
						OFFSET -5.34813 0.0 0.0
						CHANNELS 6 Xposition Yposition Zposition Zrotation Xrotation Yrotation 
						JOINT LowerArm_R
						{
							OFFSET -24.3289 0.000322201 0.0
							CHANNELS 6 Xposition Yposition Zposition Zrotation Xrotation Yrotation 
							JOINT Hand_R
							{
								OFFSET -22.2915 -0.000108084 0.0
								CHANNELS 6 Xposition Yposition Zposition Zrotation Xrotation Yrotation 
								End Site
								{
									OFFSET 0.0 0.0 0.0
								}
							}
						}
					}
				}
			}
		}
		JOINT UpperLeg_L
		{
			OFFSET -2.19248 -6.46944 0.0
			CHANNELS 6 Xposition Yposition Zposition Zrotation Xrotation Yrotation 
			JOINT LowerLeg_L
			{
				OFFSET 39.0811 0.0 -1.23785e-05
				CHANNELS 6 Xposition Yposition Zposition Zrotation Xrotation Yrotation 
				JOINT Foot_L
				{
					OFFSET 40.9854 0.0 -1.26872e-05
					CHANNELS 6 Xposition Yposition Zposition Zrotation Xrotation Yrotation 
					JOINT Toes_L
					{
						OFFSET 11.7543 0.0 0.0
						CHANNELS 6 Xposition Yposition Zposition Zrotation Xrotation Yrotation 
						End Site
						{
							OFFSET 0.0 0.0 0.0
						}
					}
				}
			}
		}
		JOINT UpperLeg_R
		{
			OFFSET -2.19251 6.46944 0.0
			CHANNELS 6 Xposition Yposition Zposition Zrotation Xrotation Yrotation 
			JOINT LowerLeg_R
			{
				OFFSET -39.0811 -0.00228153 -0.0401928
				CHANNELS 6 Xposition Yposition Zposition Zrotation Xrotation Yrotation 
				JOINT Foot_R
				{
					OFFSET -40.9854 0.0 0.0
					CHANNELS 6 Xposition Yposition Zposition Zrotation Xrotation Yrotation 
					JOINT Toes_R
					{
						OFFSET -11.7543 0.0 0.0
						CHANNELS 6 Xposition Yposition Zposition Zrotation Xrotation Yrotation 
						End Site
						{
							OFFSET 0.0 0.0 0.0
						}
					}
				}
			}
		}
	}
}
MOTION
Frames:	7
Frame Time:	0.0333333
0.000000 0.000000 0.000000 0.000000 0.000000 -0.000000 -2.563240 92.813500 -0.632302 87.693700 2.161310 5.506430 15.735700 0.000005 -0.000001 86.400200 85.620400 -84.690000 8.984550 -0.406207 -0.000000 0.987922 -0.650849 3.423240 16.377300 -0.000001 -0.000001 5.389200 2.900330 -1.588980 6.456720 -0.000001 -0.000000 -14.800100 2.621840 -0.288327 12.994200 -0.242716 4.980390 -93.656800 10.882100 -71.297700 5.348090 -0.000007 -0.000001 -69.510900 33.860600 -1.075420 24.328600 0.000019 0.000005 11.749500 23.494500 -27.553000 22.291600 -0.000001 0.000005 -6.225490 4.996170 7.424140 12.994500 -0.242716 -4.980390 87.421200 7.411100 -70.752500 -5.348130 -0.000001 -0.000004 -65.419000 40.048300 -7.668710 -24.328900 0.000322 -0.000009 1.424130 3.980130 -19.708000 -22.291500 -0.000108 -0.000004 -2.860820 5.268070 0.964834 -2.192480 -6.469440 -0.000000 -171.103000 -9.413360 1.264110 39.081100 -0.000007 -0.000012 0.003237 -0.009541 18.743500 40.985400 -0.000006 -0.000013 -1.037790 16.065500 -69.108900 11.754300 -0.000000 0.000003 -0.000790 0.180010 -9.274940 -2.192510 6.469440 -0.000001 177.756000 7.229450 -176.090000 -39.081100 -0.002282 -0.040193 0.036876 -0.121539 15.430000 -40.985400 0.000008 0.000006 -3.995990 7.805780 -69.487500 -11.754300 -0.000006 -0.000006 -0.010455 0.274677 -5.413070
0.000000 0.000000 0.000000 0.000000 0.000000 -0.000000 -2.565090 92.812800 -0.513132 87.724900 2.294940 5.458280 15.735700 0.000005 -0.000001 85.953800 85.196700 -84.239000 8.984550 -0.406207 -0.000000 1.830500 -0.766206 3.438720 16.377300 -0.000001 -0.000001 3.008670 2.966940 -1.038700 6.456720 -0.000001 -0.000000 -17.094600 3.050140 -0.419769 12.994200 -0.242716 4.980390 -93.811600 11.338200 -71.279800 5.348090 -0.000007 -0.000001 -65.863400 36.963300 -0.916417 24.328600 0.000019 0.000005 14.433300 19.272400 -37.956300 22.291600 -0.000001 0.000005 -13.506000 4.953540 8.251560 12.994500 -0.242716 -4.980390 87.477800 7.245990 -70.748700 -5.348130 -0.000001 -0.000004 -61.812400 42.928100 -8.546290 -24.328900 0.000322 -0.000009 2.221380 4.084130 -28.614800 -22.291500 -0.000108 -0.000004 -9.328900 5.186120 3.148690 -2.192480 -6.469440 -0.000000 -171.104000 -9.433660 1.342940 39.081100 -0.000007 -0.000012 0.007487 -0.022189 18.644900 40.985400 -0.000006 -0.000013 -1.019100 16.279900 -69.239700 11.754300 -0.000000 0.000003 -0.000850 0.180874 -9.239810 -2.192510 6.469440 -0.000001 177.573000 7.718710 -176.027000 -39.081100 -0.002282 -0.040193 0.030789 -0.099626 15.409400 -40.985400 0.000008 0.000006 -4.409260 8.226240 -69.390300 -11.754300 -0.000006 -0.000006 -0.010474 0.274816 -5.407360
0.000000 0.000000 0.000000 0.000000 0.000000 -0.000000 -2.560310 92.835600 -0.451224 87.670200 2.536410 5.102880 15.735700 0.000005 -0.000001 86.215300 84.950100 -84.419500 8.984550 -0.406207 -0.000000 2.326310 -0.751353 3.603350 16.377300 -0.000001 -0.000001 0.304700 2.866940 -0.636738 6.456720 -0.000001 -0.000000 -19.856500 3.206030 -0.275253 12.994200 -0.242716 4.980390 -93.771200 11.028700 -70.987500 5.348090 -0.000007 -0.000001 -60.324100 38.263100 -1.074330 24.328600 0.000019 0.000005 18.344800 13.896500 -54.088500 22.291600 -0.000001 0.000005 -24.337900 5.097460 5.043710 12.994500 -0.242716 -4.980390 87.690300 6.434150 -70.204100 -5.348130 -0.000001 -0.000004 -56.469700 44.052500 -7.970490 -24.328900 0.000322 -0.000009 1.218210 1.187360 -46.197800 -22.291500 -0.000108 -0.000004 -17.872900 4.999930 7.407010 -2.192480 -6.469440 -0.000000 -171.001000 -9.937420 1.052340 39.081100 -0.000007 -0.000012 0.008548 -0.025530 18.511500 40.985400 -0.000006 -0.000013 -0.950894 16.912900 -69.232300 11.754300 -0.000000 0.000003 -0.001065 0.183952 -9.114740 -2.192510 6.469440 -0.000001 177.421000 8.694130 -176.175000 -39.081100 -0.002282 -0.040193 0.021942 -0.069029 15.089300 -40.985400 0.000008 0.000006 -4.903280 9.036590 -68.883900 -11.754300 -0.000006 -0.000006 -0.010600 0.275735 -5.369770
0.000000 0.000000 0.000000 0.000000 0.000000 -0.000000 -2.528380 92.951800 -0.417834 87.719900 2.971780 3.972690 15.735700 0.000005 -0.000001 85.473600 85.334600 -83.612200 8.984550 -0.406207 -0.000000 1.552230 -0.836872 3.730860 16.377300 -0.000001 -0.000001 -1.311070 2.717310 -0.414606 6.456720 -0.000001 -0.000000 -22.451900 3.278110 -0.350405 12.994200 -0.242716 4.980390 -93.475300 9.786980 -70.339000 5.348090 -0.000007 -0.000001 -52.512900 36.942300 -2.447840 24.328600 0.000019 0.000005 20.681000 6.759350 -72.693200 22.291600 -0.000001 0.000005 -32.957300 5.173760 3.366910 12.994500 -0.242716 -4.980390 88.053100 5.136930 -69.207900 -5.348130 -0.000001 -0.000004 -48.591100 43.771900 -7.328700 -24.328900 0.000322 -0.000009 -2.541830 -0.964421 -68.981000 -22.291500 -0.000108 -0.000004 -22.769300 4.838690 10.592700 -2.192480 -6.469440 -0.000000 -171.132000 -10.760800 0.346580 39.081100 -0.000007 -0.000012 0.008537 -0.027020 17.534300 40.985400 -0.000006 -0.000013 -0.946854 17.907500 -68.797500 11.754300 -0.000000 0.000003 -0.000848 0.180848 -9.240890 -2.192510 6.469440 -0.000001 177.147000 10.139500 -176.751000 -39.081100 -0.002282 -0.040193 0.007929 -0.018405 14.023900 -40.985400 0.000008 0.000006 -6.256450 10.144700 -67.700900 -11.754300 -0.000006 -0.000006 -0.010428 0.274475 -5.421330
0.000000 0.000000 0.000000 0.000000 0.000000 -0.000000 -2.531760 93.195800 -0.464631 87.778500 3.412010 1.820920 15.735700 0.000005 -0.000001 82.749800 86.390800 -80.816900 8.984550 -0.406207 -0.000000 -0.584628 -1.051570 3.858470 16.377300 -0.000001 -0.000001 -2.237540 2.550390 -0.307517 6.456720 -0.000001 -0.000000 -23.216600 3.483550 -0.534708 12.994200 -0.242716 4.980390 -92.940100 8.050010 -69.858300 5.348090 -0.000007 -0.000001 -42.832000 31.011300 -5.775050 24.328600 0.000019 0.000005 20.598900 0.278971 -89.261200 22.291600 -0.000001 0.000005 -34.649500 5.138590 4.209340 12.994500 -0.242716 -4.980390 88.570700 3.522860 -67.896300 -5.348130 -0.000001 -0.000004 -38.682600 39.073400 -9.289700 -24.328900 0.000322 -0.000009 -6.223570 0.003876 -89.962400 -22.291500 -0.000108 -0.000004 -25.287800 4.799770 11.322600 -2.192480 -6.469440 -0.000000 -171.432000 -12.464800 -0.844265 39.081100 -0.000007 -0.000012 0.006885 -0.024963 15.420000 40.985400 -0.000006 -0.000013 -1.094250 19.537300 -68.109800 11.754300 -0.000000 0.000003 -0.001503 0.189934 -8.871560 -2.192510 6.469440 -0.000001 177.076000 11.515500 -177.652000 -39.081100 -0.002282 -0.040193 -0.001572 0.024512 11.324300 -40.985400 0.000008 0.000006 -8.737700 11.221100 -65.177000 -11.754300 -0.000006 -0.000006 -0.010110 0.272127 -5.517360
0.000000 0.000000 0.000000 0.000000 0.000000 -0.000000 -2.530840 93.551400 -0.617121 87.770000 3.845210 -0.931808 15.735700 0.000005 -0.000001 72.435000 87.682300 -70.424900 8.984550 -0.406207 -0.000000 -3.316310 -1.592490 3.975310 16.377300 -0.000001 -0.000001 -3.275100 2.564280 -0.124278 6.456720 -0.000001 -0.000000 -21.902100 3.975770 -0.508142 12.994200 -0.242716 4.980390 -92.311100 6.192460 -69.486300 5.348090 -0.000007 -0.000001 -32.775300 19.233000 -10.551700 24.328600 0.000019 0.000005 20.451300 -3.527410 -99.366800 22.291600 -0.000001 0.000005 -30.940700 5.125870 4.527840 12.994500 -0.242716 -4.980390 89.323900 1.592690 -66.987700 -5.348130 -0.000001 -0.000004 -29.530100 27.328600 -13.550000 -24.328900 0.000322 -0.000009 -10.172900 2.693530 -104.645000 -22.291500 -0.000108 -0.000004 -25.320800 4.830500 10.740100 -2.192480 -6.469440 -0.000000 -171.814000 -14.066000 -2.061700 39.081100 -0.000007 -0.000012 -0.007342 0.034768 11.923600 40.985400 -0.000006 -0.000013 -2.710900 21.472700 -66.170100 11.754300 -0.000000 0.000003 -0.001165 0.185357 -9.057640 -2.192510 6.469440 -0.000001 177.521000 13.029400 -179.360000 -39.081100 -0.002282 -0.040193 0.005512 -0.014108 8.749420 -40.985400 0.000008 0.000006 -9.749330 11.995600 -62.722300 -11.754300 -0.000006 -0.000006 -0.009767 0.269557 -5.622480
0.000000 0.000000 0.000000 0.000000 0.000000 -0.000000 -2.543680 93.928000 -0.685564 87.535500 4.182340 -3.201710 15.735700 0.000005 -0.000001 45.821600 88.660300 -43.683400 8.984550 -0.406207 -0.000000 -5.803420 -2.117630 4.174250 16.377300 -0.000001 -0.000001 -4.009640 2.627630 0.145513 6.456720 -0.000001 -0.000000 -19.908300 4.377470 -0.375239 12.994200 -0.242716 4.980390 -91.645200 4.416380 -69.545200 5.348090 -0.000007 -0.000001 -23.696100 3.699860 -15.483800 24.328600 0.000019 0.000005 22.153800 -4.125300 -100.025000 22.291600 -0.000001 0.000005 -25.742400 5.186140 3.090900 12.994500 -0.242716 -4.980390 90.122900 -0.275441 -65.987000 -5.348130 -0.000001 -0.000004 -23.179000 8.697720 -19.181000 -24.328900 0.000322 -0.000009 -13.508000 4.862820 -109.437000 -22.291500 -0.000108 -0.000004 -24.806200 4.917250 9.035910 -2.192480 -6.469440 -0.000000 -171.601000 -14.950100 -2.265900 39.081100 -0.000007 -0.000012 -0.018445 0.150435 6.989990 40.985400 -0.000006 -0.000013 -8.921990 22.736200 -60.487400 11.754300 -0.000000 0.000003 -0.001141 0.185017 -9.071450 -2.192510 6.469440 -0.000001 178.270000 14.679600 179.389000 -39.081100 -0.002282 -0.040193 0.008885 -0.050857 6.217020 -40.985400 0.000008 0.000006 -10.273800 12.975900 -60.066900 -11.754300 -0.000006 -0.000006 -0.008969 0.263434 -5.872800
